# xmcd
# 
# Track frame offsets:
#     150
#     17961
#     34825
#     67007
#     108235
#     126736
#     139821
#     162854
#     187450
#     209612
#     230084
#     245994
#     269472
#     293751
#     305147
#     322962
# 
# Disc length: 4599
# 
# Revision: 0
# Processed by: cddbd v1.5.2PL0 Copyright (c) Steve Scherf et al.
# Submitted via: fre:ac v1.0.27
# 
DISCID=0d11f510
DTITLE=Joanna Connor - 25 Years of Top Hits
DYEAR=2015
DGENRE=Blues
TTITLE0=Being Nice
TTITLE1=Pack It Up
TTITLE2=Midnight Sunrise
TTITLE3=Sky is Crying
TTITLE4=Rock 'n Roll Gypsy
TTITLE5=Fire
TTITLE6=Going With Me
TTITLE7=Slippin' Away
TTITLE8=Rain On Window
TTITLE9=43rd Street
TTITLE10=Smoke It Up
TTITLE11=Slide On It
TTITLE12=Within You, Without You
TTITLE13=Shake Your Money Maker
TTITLE14=Howlin'
TTITLE15=Here I Am Baby
EXTD=
EXTT0=
EXTT1=
EXTT2=
EXTT3=
EXTT4=
EXTT5=
EXTT6=
EXTT7=
EXTT8=
EXTT9=
EXTT10=
EXTT11=
EXTT12=
EXTT13=
EXTT14=
EXTT15=
PLAYORDER=
